<svg xmlns="http://www.w3.org/2000/svg" xmlns:xlink="http://www.w3.org/1999/xlink" width="135" height="33.751" viewBox="0 0 135 33.751"><defs><clipPath id="a"><path d="M0,0H30.777V33.751H0Z" fill="#fff"/></clipPath></defs><g transform="translate(0 13.514)"><text transform="translate(46 9.486)" fill="#fff" font-size="24" font-family="ArialRoundedMTBold, Arial Rounded MT Bold"><tspan x="0" y="0">papper.</tspan></text><g transform="translate(0 -13.514)"><g clip-path="url(#a)"><path d="M7.315,51.826a4.275,4.275,0,0,1-4.222-3.654L.347,29.058a4.24,4.24,0,0,1,3.61-4.812l5.2-.749.476,3.223-5.2.772a.98.98,0,0,0-.84,1.115L6.336,47.695a.992.992,0,0,0,1.112.84L21.86,46.469a.794.794,0,0,0,.681-.908l-.182-1.18,3.249-.476.182,1.18a4.122,4.122,0,0,1-3.472,4.63L7.905,51.8c-.2,0-.409.022-.59.022Zm0,0" transform="translate(-0.234 -18.166)" fill="#fff" opacity="0.4"/></g><path d="M53.1,27.678H38.664A4.259,4.259,0,0,1,34.4,23.41V4.367A4.259,4.259,0,0,1,38.667.1H53.106a4.259,4.259,0,0,1,4.267,4.267V23.41A4.259,4.259,0,0,1,53.1,27.678ZM38.664,3.392a.969.969,0,0,0-.976.976V23.41a.969.969,0,0,0,.976.976H53.1a.969.969,0,0,0,.976-.976V4.367a.969.969,0,0,0-.976-.976Zm0,0" transform="translate(-26.592 -0.078)" fill="#fff"/><path d="M77.246,63.7a3.473,3.473,0,1,1-6.946,0Zm0,0" transform="translate(-54.344 -49.242)" fill="#fff" opacity="0.4"/><path d="M63.033,44.816A1.316,1.316,0,1,1,61.716,43.5a1.316,1.316,0,0,1,1.317,1.316Zm0,0" transform="translate(-46.691 -33.627)" fill="#fff" opacity="0.4"/><path d="M100.633,44.816A1.317,1.317,0,1,1,99.316,43.5a1.317,1.317,0,0,1,1.317,1.316Zm0,0" transform="translate(-75.756 -33.627)" fill="#fff" opacity="0.4"/></g></g></svg>